<svg xmlns="http://www.w3.org/2000/svg" viewBox="0 0 1000 1000"><polyline points="306.44 243.56 380.7 114.94 751.11 114.94 936.32 435.69 751.11 756.44 693.56 756.44 804.5 564.31 619.29 243.56 306.44 243.56 248.89 243.56 63.68 564.31 248.89 885.06 619.29 885.06 693.56 756.44" fill="none" stroke="#fff" stroke-width="35"/><path d="M794.34,565.51S553.48,671.36,436.72,673.58,78.22,568.42,78.22,568.42v-.51s241.3-108.36,358.07-106.62S794.35,565.51,794.35,565.51Z" fill="none" stroke="#fff" stroke-linecap="round" stroke-linejoin="round" stroke-width="40"/><path d="M436.29,489a78.44,78.44,0,1,1-78.44,78.44A78.44,78.44,0,0,1,436.29,489m0-40A118.44,118.44,0,1,0,520,483.69,117.66,117.66,0,0,0,436.29,449Z" fill="#fff"/></svg>